<svg width="24" height="25" viewBox="0 0 24 25" fill="none" xmlns="http://www.w3.org/2000/svg">
<path d="M13.1426 2.21559C13.0335 2.2146 12.911 2.2146 12.7709 2.2146H7.65727C6.37718 2.2146 5.73666 2.2146 5.24774 2.46372C4.81766 2.68285 4.46825 3.03226 4.24912 3.46234C4 3.95126 4 4.59178 4 5.87187V19.1287C4 20.4087 4 21.0485 4.24912 21.5374C4.46825 21.9674 4.81766 22.3175 5.24774 22.5366C5.73619 22.7855 6.37594 22.7855 7.65355 22.7855H16.3461C17.6236 22.7855 18.2625 22.7855 18.7509 22.5366C19.181 22.3175 19.5316 21.9674 19.7507 21.5374C19.9996 21.049 19.9996 20.4101 19.9996 19.1325V9.44375C19.9996 9.30351 19.9996 9.18082 19.9985 9.07156M13.1426 2.21559C13.469 2.21857 13.6755 2.23043 13.8726 2.27775C14.1059 2.33374 14.3288 2.42632 14.5332 2.55164C14.7638 2.69295 14.9618 2.89095 15.3568 3.286L18.9287 6.85788C19.324 7.2532 19.5206 7.4503 19.662 7.68096C19.7872 7.88546 19.8799 8.10845 19.9359 8.34167C19.9832 8.53873 19.9953 8.74529 19.9985 9.07156M13.1426 2.21559V5.41451C13.1426 6.69459 13.1426 7.3342 13.3917 7.82312C13.6108 8.2532 13.9603 8.60355 14.3904 8.82269C14.8788 9.07156 15.5185 9.07156 16.7961 9.07156H19.9985M19.9985 9.07156H19.9998" stroke="#0D062D" stroke-width="2.28565" stroke-linecap="round" stroke-linejoin="round"/>
</svg>
