<svg width="24" height="25" viewBox="0 0 24 25" fill="none" xmlns="http://www.w3.org/2000/svg">
<path d="M3 5.72229V17.1222C3 18.3045 3 18.8953 3.2301 19.3468C3.43249 19.744 3.75521 20.0677 4.15244 20.27C4.60358 20.4999 5.19446 20.4999 6.37448 20.4999H18.6253C19.8053 20.4999 20.3954 20.4999 20.8465 20.27C21.2437 20.0677 21.5675 19.7442 21.7699 19.347C22 18.8955 22 18.3043 22 17.122V9.0998C22 7.91748 22 7.32632 21.7699 6.87474C21.5675 6.4775 21.2439 6.15478 20.8467 5.95239C20.3952 5.72229 19.8044 5.72229 18.622 5.72229H12.4999M3 5.72229H12.4999M3 5.72229C3 4.55637 3.94517 3.61121 5.11109 3.61121H8.9897C9.50605 3.61121 9.76483 3.61121 10.0078 3.66954C10.2232 3.72125 10.4288 3.80676 10.6176 3.92251C10.8307 4.05302 11.0135 4.2359 11.3784 4.60078L12.4999 5.72229" stroke="#0D062D" stroke-width="2.11109" stroke-linecap="round" stroke-linejoin="round"/>
</svg>
