<svg width="20" height="21" viewBox="0 0 20 21" fill="none" xmlns="http://www.w3.org/2000/svg">
<path fill-rule="evenodd" clip-rule="evenodd" d="M0 10.5C0 4.977 4.477 0.5 10 0.5C15.523 0.5 20 4.977 20 10.5C20 16.023 15.523 20.5 10 20.5C4.477 20.5 0 16.023 0 10.5ZM10 2.5C7.87827 2.5 5.84344 3.34285 4.34315 4.84315C2.84285 6.34344 2 8.37827 2 10.5C2 12.6217 2.84285 14.6566 4.34315 16.1569C5.84344 17.6571 7.87827 18.5 10 18.5C12.1217 18.5 14.1566 17.6571 15.6569 16.1569C17.1571 14.6566 18 12.6217 18 10.5C18 8.37827 17.1571 6.34344 15.6569 4.84315C14.1566 3.34285 12.1217 2.5 10 2.5Z" fill="#0D062D"/>
<path fill-rule="evenodd" clip-rule="evenodd" d="M11 5.5C11 5.23478 10.8946 4.98043 10.7071 4.79289C10.5196 4.60536 10.2652 4.5 10 4.5C9.73478 4.5 9.48043 4.60536 9.29289 4.79289C9.10536 4.98043 9 5.23478 9 5.5V9.5H5C4.73478 9.5 4.48043 9.60536 4.29289 9.79289C4.10536 9.98043 4 10.2348 4 10.5C4 10.7652 4.10536 11.0196 4.29289 11.2071C4.48043 11.3946 4.73478 11.5 5 11.5H9V15.5C9 15.7652 9.10536 16.0196 9.29289 16.2071C9.48043 16.3946 9.73478 16.5 10 16.5C10.2652 16.5 10.5196 16.3946 10.7071 16.2071C10.8946 16.0196 11 15.7652 11 15.5V11.5H15C15.2652 11.5 15.5196 11.3946 15.7071 11.2071C15.8946 11.0196 16 10.7652 16 10.5C16 10.2348 15.8946 9.98043 15.7071 9.79289C15.5196 9.60536 15.2652 9.5 15 9.5H11V5.5Z" fill="#0D062D"/>
</svg>
