<svg width="22" height="23" viewBox="0 0 22 23" fill="none" xmlns="http://www.w3.org/2000/svg">
<path d="M7 10.5C6.73478 10.5 6.48043 10.6054 6.29289 10.7929C6.10536 10.9804 6 11.2348 6 11.5C6 11.7652 6.10536 12.0196 6.29289 12.2071C6.48043 12.3946 6.73478 12.5 7 12.5H15C15.2652 12.5 15.5196 12.3946 15.7071 12.2071C15.8946 12.0196 16 11.7652 16 11.5C16 11.2348 15.8946 10.9804 15.7071 10.7929C15.5196 10.6054 15.2652 10.5 15 10.5H7Z" fill="#0D062D"/>
<path fill-rule="evenodd" clip-rule="evenodd" d="M22 11.5C22 17.575 17.075 22.5 11 22.5C4.925 22.5 0 17.575 0 11.5C0 5.425 4.925 0.5 11 0.5C17.075 0.5 22 5.425 22 11.5ZM20 11.5C20 12.6819 19.7672 13.8522 19.3149 14.9442C18.8626 16.0361 18.1997 17.0282 17.364 17.864C16.5282 18.6997 15.5361 19.3626 14.4442 19.8149C13.3522 20.2672 12.1819 20.5 11 20.5C9.8181 20.5 8.64778 20.2672 7.55585 19.8149C6.46392 19.3626 5.47177 18.6997 4.63604 17.864C3.80031 17.0282 3.13738 16.0361 2.68508 14.9442C2.23279 13.8522 2 12.6819 2 11.5C2 9.11305 2.94821 6.82387 4.63604 5.13604C6.32387 3.44821 8.61305 2.5 11 2.5C13.3869 2.5 15.6761 3.44821 17.364 5.13604C19.0518 6.82387 20 9.11305 20 11.5Z" fill="#0D062D"/>
</svg>
