<svg width="14" height="15" viewBox="0 0 14 15" fill="none" xmlns="http://www.w3.org/2000/svg">
<path d="M7.0013 1.66632C10.2231 1.66632 12.8346 4.2779 12.8346 7.49965C12.8346 10.7214 10.2231 13.333 7.0013 13.333C3.77955 13.333 1.16797 10.7214 1.16797 7.49965C1.16797 4.2779 3.77955 1.66632 7.0013 1.66632ZM7.0013 2.83299C5.76363 2.83299 4.57664 3.32465 3.70147 4.19982C2.8263 5.07499 2.33464 6.26198 2.33464 7.49965C2.33464 8.73733 2.8263 9.92432 3.70147 10.7995C4.57664 11.6747 5.76363 12.1663 7.0013 12.1663C8.23898 12.1663 9.42596 11.6747 10.3011 10.7995C11.1763 9.92432 11.668 8.73733 11.668 7.49965C11.668 6.26198 11.1763 5.07499 10.3011 4.19982C9.42596 3.32465 8.23898 2.83299 7.0013 2.83299ZM7.0013 3.99965C7.14418 3.99967 7.28208 4.05213 7.38885 4.14707C7.49562 4.24201 7.56384 4.37284 7.58055 4.51474L7.58464 4.58299V7.25815L9.16372 8.83724C9.26834 8.94221 9.32908 9.08307 9.3336 9.23121C9.33813 9.37935 9.28609 9.52365 9.18807 9.63482C9.09005 9.74598 8.9534 9.81567 8.80586 9.82972C8.65832 9.84378 8.51096 9.80114 8.39372 9.71049L8.33889 9.66207L6.58889 7.91207C6.49822 7.82133 6.44 7.70324 6.42322 7.57607L6.41797 7.49965V4.58299C6.41797 4.42828 6.47943 4.27991 6.58882 4.17051C6.69822 4.06111 6.84659 3.99965 7.0013 3.99965Z" fill="white"/>
</svg>
