<svg width="41" height="41" viewBox="0 0 41 41" fill="none" xmlns="http://www.w3.org/2000/svg">
<path d="M2.19989 18.4666V35.5466C2.19989 36.6855 2.19989 37.2538 2.4215 37.6887C2.61646 38.0714 2.9273 38.3835 3.30989 38.5785C3.74441 38.8 4.31254 38.8 5.4491 38.8H27.4161C28.5525 38.8 29.1229 38.8 29.5574 38.5785C29.94 38.3835 30.2493 38.0722 30.4441 37.6895C30.6657 37.2546 30.6657 36.6853 30.6657 35.5464L30.6688 26.6012M2.19989 18.4666H16.4332M2.19989 18.4666V17.6535C2.19989 16.5148 2.19989 15.9449 2.4215 15.5099C2.61644 15.1274 2.9273 14.8165 3.30989 14.6215C3.74476 14.4 4.31405 14.4 5.45243 14.4L10.3332 14.4M30.6688 26.6012L30.6657 21.7197C30.6657 20.5809 30.6657 20.0115 30.4441 19.5766C30.2493 19.1939 29.9429 18.8832 29.5604 18.6883C29.1253 18.4666 28.5519 18.4666 27.4132 18.4666H16.4332M30.6688 26.6012L35.5512 26.6C36.6879 26.6 37.2574 26.6 37.6919 26.3785C38.0744 26.1835 38.3826 25.8722 38.5774 25.4895C38.7991 25.0546 38.7991 24.4853 38.7991 23.3464V9.51973C38.7991 8.38096 38.7991 7.81156 38.5774 7.37661C38.3826 6.99402 38.0762 6.68319 37.6936 6.48823C37.2586 6.26662 36.6854 6.26662 35.5466 6.26662H10.3332M16.4332 18.4666L14.247 15.6559C13.8887 15.1953 13.7089 14.9641 13.4845 14.7981C13.2856 14.651 13.0641 14.5419 12.8259 14.4752C12.5571 14.4 12.2625 14.4 11.6791 14.4L10.3332 14.4M10.3332 14.4V6.26662M10.3332 6.26662V5.45349C10.3332 4.3149 10.3332 3.74486 10.5548 3.30995C10.7498 2.92736 11.0606 2.61652 11.4432 2.42156C11.8782 2.19995 12.447 2.19995 13.5858 2.19995H19.8116C20.3956 2.19995 20.6855 2.19995 20.9545 2.2752C21.1926 2.34188 21.419 2.45101 21.6178 2.59808C21.8423 2.76406 22.022 2.99529 22.3803 3.4559L24.5664 6.26658" stroke="#BFC8D9" stroke-width="4.06667" stroke-linecap="round" stroke-linejoin="round"/>
</svg>
