<svg width="41" height="41" viewBox="0 0 41 41" fill="none" xmlns="http://www.w3.org/2000/svg">
<path d="M2.2002 18.4666V35.5466C2.2002 36.6855 2.2002 37.2538 2.42181 37.6887C2.61676 38.0714 2.9276 38.3835 3.31019 38.5785C3.74472 38.8 4.31285 38.8 5.4494 38.8H27.4164C28.5528 38.8 29.1232 38.8 29.5577 38.5785C29.9404 38.3835 30.2496 38.0722 30.4444 37.6895C30.666 37.2546 30.666 36.6853 30.666 35.5464L30.6691 26.6012M2.2002 18.4666H16.4335M2.2002 18.4666V17.6535C2.2002 16.5148 2.2002 15.9449 2.42181 15.5099C2.61674 15.1274 2.9276 14.8165 3.31019 14.6215C3.74506 14.4 4.31435 14.4 5.45274 14.4L10.3335 14.4M30.6691 26.6012L30.666 21.7197C30.666 20.5809 30.666 20.0115 30.4444 19.5766C30.2496 19.1939 29.9432 18.8832 29.5607 18.6883C29.1256 18.4666 28.5522 18.4666 27.4135 18.4666H16.4335M30.6691 26.6012L35.5515 26.6C36.6882 26.6 37.2577 26.6 37.6922 26.3785C38.0747 26.1835 38.383 25.8722 38.5777 25.4895C38.7994 25.0546 38.7994 24.4853 38.7994 23.3464V9.51973C38.7994 8.38096 38.7994 7.81156 38.5777 7.37661C38.383 6.99402 38.0765 6.68319 37.6939 6.48823C37.2589 6.26662 36.6857 6.26662 35.5469 6.26662H10.3335M16.4335 18.4666L14.2473 15.6559C13.889 15.1953 13.7092 14.9641 13.4848 14.7981C13.2859 14.651 13.0644 14.5419 12.8262 14.4752C12.5574 14.4 12.2628 14.4 11.6794 14.4L10.3335 14.4M10.3335 14.4V6.26662M10.3335 6.26662V5.45349C10.3335 4.3149 10.3335 3.74486 10.5551 3.30995C10.7501 2.92736 11.0609 2.61652 11.4435 2.42156C11.8785 2.19995 12.4473 2.19995 13.5861 2.19995H19.8119C20.3959 2.19995 20.6858 2.19995 20.9548 2.2752C21.193 2.34188 21.4193 2.45101 21.6181 2.59808C21.8426 2.76406 22.0223 2.99529 22.3806 3.4559L24.5667 6.26658" stroke="white" stroke-width="4.06667" stroke-linecap="round" stroke-linejoin="round"/>
</svg>
