<svg width="37" height="42" viewBox="0 0 37 42" fill="none" xmlns="http://www.w3.org/2000/svg">
<path d="M10.1997 6.64162H8.57348C6.29592 6.64162 5.1563 6.64162 4.2864 7.08486C3.5212 7.47474 2.89952 8.09641 2.50965 8.86161C2.06641 9.73151 2.06641 10.8711 2.06641 13.1487V14.775M10.1997 6.64162H26.4664M10.1997 6.64162V2.57495M2.06641 14.775V32.6687C2.06641 34.9462 2.06641 36.0845 2.50965 36.9543C2.89952 37.7195 3.5212 38.3423 4.2864 38.7321C5.15545 39.175 6.29369 39.175 8.56679 39.175H28.0994C30.3724 39.175 31.5091 39.175 32.3781 38.7321C33.1433 38.3423 33.7671 37.7195 34.1569 36.9543C34.5997 36.0853 34.5997 34.9487 34.5997 32.6756V14.775M2.06641 14.775H34.5997M26.4664 6.64162H28.0935C30.371 6.64162 31.5083 6.64162 32.3781 7.08486C33.1433 7.47474 33.7671 8.09641 34.1569 8.86161C34.5997 9.73066 34.5997 10.8689 34.5997 13.142V14.775M26.4664 6.64162V2.57495M26.4664 31.0416H26.4705V31.0457H26.4664V31.0416ZM18.3331 31.0416H18.3371V31.0457H18.3331V31.0416ZM10.1997 31.0416H10.2038L10.2037 31.0457H10.1997V31.0416ZM26.4705 22.9083V22.9124H26.4664V22.9083H26.4705ZM18.3331 22.9083H18.3371V22.9124H18.3331V22.9083ZM10.1997 22.9083H10.2038L10.2037 22.9124H10.1997V22.9083Z" stroke="white" stroke-width="4.06667" stroke-linecap="round" stroke-linejoin="round"/>
</svg>
