<svg width="37" height="42" viewBox="0 0 37 42" fill="none" xmlns="http://www.w3.org/2000/svg">
<path d="M10.2 6.64162H8.57372C6.29617 6.64162 5.15654 6.64162 4.28664 7.08486C3.52144 7.47474 2.89977 8.09641 2.5099 8.86161C2.06665 9.73151 2.06665 10.8711 2.06665 13.1487V14.775M10.2 6.64162H26.4667M10.2 6.64162V2.57495M2.06665 14.775V32.6687C2.06665 34.9462 2.06665 36.0845 2.5099 36.9543C2.89977 37.7195 3.52144 38.3423 4.28664 38.7321C5.15569 39.175 6.29393 39.175 8.56703 39.175H28.0996C30.3727 39.175 31.5093 39.175 32.3784 38.7321C33.1435 38.3423 33.7673 37.7195 34.1571 36.9543C34.6 36.0853 34.6 34.9487 34.6 32.6756V14.775M2.06665 14.775H34.6M26.4667 6.64162H28.0937C30.3713 6.64162 31.5085 6.64162 32.3784 7.08486C33.1435 7.47474 33.7673 8.09641 34.1571 8.86161C34.6 9.73066 34.6 10.8689 34.6 13.142V14.775M26.4667 6.64162V2.57495M26.4667 31.0416H26.4707V31.0457H26.4667V31.0416ZM18.3333 31.0416H18.3374V31.0457H18.3333V31.0416ZM10.2 31.0416H10.204L10.2039 31.0457H10.2V31.0416ZM26.4707 22.9083V22.9124H26.4667V22.9083H26.4707ZM18.3333 22.9083H18.3374V22.9124H18.3333V22.9083ZM10.2 22.9083H10.204L10.2039 22.9124H10.2V22.9083Z" stroke="#BFC8D9" stroke-width="4.06667" stroke-linecap="round" stroke-linejoin="round"/>
</svg>
