<svg width="44" height="42" viewBox="0 0 44 42" fill="none" xmlns="http://www.w3.org/2000/svg">
<path d="M13.7526 33.6771L21.7589 28.8479L29.7651 33.7406L27.6683 24.5906L34.7214 18.4906L25.4443 17.6646L21.7589 9.02292L18.0735 17.601L8.79639 18.4271L15.8495 24.5906L13.7526 33.6771ZM21.7589 34.8208L11.211 41.175C10.745 41.4715 10.2579 41.5986 9.74952 41.5562C9.24118 41.5139 8.79639 41.3444 8.41514 41.0479C8.03389 40.7514 7.73736 40.3812 7.52556 39.9372C7.31375 39.4933 7.27139 38.9951 7.39848 38.4427L10.1943 26.4333L0.853684 18.3635C0.430073 17.9823 0.16574 17.5477 0.0606843 17.0597C-0.0443712 16.5717 -0.0130242 16.0955 0.154726 15.6313C0.322476 15.167 0.576642 14.7857 0.917226 14.4875C1.25781 14.1893 1.72378 13.9987 2.31514 13.9156L14.6422 12.8354L19.4079 1.525C19.6197 1.01667 19.9484 0.635416 20.394 0.38125C20.8397 0.127083 21.2946 0 21.7589 0C22.2232 0 22.6781 0.127083 23.1238 0.38125C23.5694 0.635416 23.8981 1.01667 24.1099 1.525L28.8756 12.8354L41.2026 13.9156C41.7957 14.0003 42.2617 14.191 42.6006 14.4875C42.9394 14.784 43.1936 15.1653 43.3631 15.6313C43.5325 16.0972 43.5647 16.5742 43.4596 17.0622C43.3546 17.5502 43.0894 17.984 42.6641 18.3635L33.3235 26.4333L36.1193 38.4427C36.2464 38.9934 36.204 39.4916 35.9922 39.9372C35.7804 40.3829 35.4839 40.7531 35.1026 41.0479C34.7214 41.3428 34.2766 41.5122 33.7683 41.5562C33.2599 41.6003 32.7728 41.4732 32.3068 41.175L21.7589 34.8208Z" fill="#BFC8D9"/>
</svg>
