<svg width="41" height="36" viewBox="0 0 41 36" fill="none" xmlns="http://www.w3.org/2000/svg">
<path d="M30.6667 33.0207C30.6667 29.6517 26.1149 26.9207 20.5 26.9207C14.8851 26.9207 10.3333 29.6517 10.3333 33.0207M38.8 26.9216C38.8 24.4202 36.2907 22.2703 32.7 21.3291M2.20001 26.9216C2.20001 24.4202 4.70935 22.2703 8.30001 21.3291M32.7 13.1675C33.9479 12.0506 34.7333 10.4274 34.7333 8.62075C34.7333 5.25182 32.0024 2.52075 28.6333 2.52075C27.0709 2.52075 25.646 3.10808 24.5667 4.07399M8.30001 13.1675C7.05205 12.0506 6.26668 10.4274 6.26668 8.62075C6.26668 5.25182 8.99775 2.52075 12.3667 2.52075C13.929 2.52075 15.3541 3.10808 16.4333 4.07399M20.5 20.8207C17.131 20.8207 14.4 18.0898 14.4 14.7208C14.4 11.3518 17.131 8.62075 20.5 8.62075C23.869 8.62075 26.6 11.3518 26.6 14.7208C26.6 18.0898 23.869 20.8207 20.5 20.8207Z" stroke="#BFC8D9" stroke-width="4.06667" stroke-linecap="round" stroke-linejoin="round"/>
</svg>
