<svg width="41" height="36" viewBox="0 0 41 36" fill="none" xmlns="http://www.w3.org/2000/svg">
<path d="M30.6669 33.0207C30.6669 29.6517 26.115 26.9207 20.5002 26.9207C14.8853 26.9207 10.3335 29.6517 10.3335 33.0207M38.8002 26.9216C38.8002 24.4202 36.2909 22.2703 32.7002 21.3291M2.2002 26.9216C2.2002 24.4202 4.70953 22.2703 8.3002 21.3291M32.7002 13.1675C33.9481 12.0506 34.7335 10.4274 34.7335 8.62075C34.7335 5.25182 32.0026 2.52075 28.6335 2.52075C27.0711 2.52075 25.6462 3.10808 24.5669 4.07399M8.3002 13.1675C7.05224 12.0506 6.26686 10.4274 6.26686 8.62075C6.26686 5.25182 8.99793 2.52075 12.3669 2.52075C13.9292 2.52075 15.3543 3.10808 16.4335 4.07399M20.5002 20.8207C17.1312 20.8207 14.4002 18.0898 14.4002 14.7208C14.4002 11.3518 17.1312 8.62075 20.5002 8.62075C23.8692 8.62075 26.6002 11.3518 26.6002 14.7208C26.6002 18.0898 23.8692 20.8207 20.5002 20.8207Z" stroke="white" stroke-width="4.06667" stroke-linecap="round" stroke-linejoin="round"/>
</svg>
